<svg width="11" height="11" viewBox="0 0 11 11" fill="none" xmlns="http://www.w3.org/2000/svg">
<path d="M5.49999 0.916672C6.10188 0.916672 6.69788 1.03522 7.25396 1.26556C7.81003 1.49589 8.31529 1.8335 8.7409 2.2591C9.1665 2.6847 9.5041 3.18996 9.73444 3.74604C9.96477 4.30211 10.0833 4.89811 10.0833 5.50001C10.0833 6.71558 9.60044 7.88137 8.7409 8.74091C7.88135 9.60045 6.71557 10.0833 5.49999 10.0833C4.8981 10.0833 4.3021 9.96479 3.74602 9.73445C3.18995 9.50412 2.68469 9.16651 2.25908 8.74091C1.39954 7.88137 0.916656 6.71558 0.916656 5.50001C0.916656 4.28443 1.39954 3.11864 2.25908 2.2591C3.11863 1.39956 4.28441 0.916672 5.49999 0.916672V0.916672ZM4.58332 7.02626C4.65666 7.27376 4.64749 7.50292 4.58332 7.71376C4.58332 7.73667 4.56499 7.75959 4.55582 7.79167C4.54666 7.79167 4.53749 7.82376 4.52374 7.84667C4.47332 7.95667 4.39999 8.06209 4.31291 8.15376C4.04707 8.44709 3.66666 8.55709 3.51541 8.46542C3.34124 8.36459 3.43749 7.95209 3.73999 7.62667C4.06999 7.27834 4.54666 7.04917 4.54666 7.04917L4.58332 7.02626V7.02626ZM8.37374 2.87834C8.16749 2.06251 6.81541 1.79667 5.54124 2.25042C4.78041 2.52084 3.95541 2.94251 3.36416 3.49709C2.66291 4.15709 2.54832 4.73001 2.59416 4.96834C2.74999 5.81167 3.91416 6.36626 4.39082 6.77417V6.77876C4.25332 6.84751 3.22666 7.36542 2.97916 7.89709C2.73166 8.45626 3.02499 8.85959 3.20832 8.91459C3.82249 9.07959 4.44124 8.78167 4.77124 8.28209C5.09207 7.80542 5.06916 7.18667 4.92707 6.87501C5.11957 6.82917 5.34416 6.80626 5.62832 6.83834C6.43499 6.93459 6.59082 7.43417 6.55874 7.64501C6.53124 7.85584 6.36166 7.97042 6.30666 8.00709C6.25166 8.03917 6.23332 8.05292 6.23791 8.08042C6.24249 8.11709 6.26999 8.11709 6.31582 8.10792C6.38457 8.09417 6.74207 7.93834 6.75582 7.54875C6.77416 7.05375 6.30207 6.50376 5.46791 6.51751C5.12416 6.52667 4.90874 6.55876 4.75291 6.61834L4.71624 6.57709C4.19832 6.02709 3.24499 5.63751 3.28624 4.89501C3.29999 4.62459 3.39166 3.91876 5.11957 3.05709C6.53124 2.35126 7.66332 2.54376 7.86041 2.97917C8.13999 3.58876 7.25541 4.73001 5.78874 4.89501C5.22957 4.95917 4.93166 4.73917 4.85832 4.66126C4.78041 4.58334 4.77124 4.56959 4.74374 4.58334C4.69332 4.61542 4.72541 4.68876 4.74374 4.73459C4.78499 4.84917 4.96832 5.04167 5.27082 5.15167C5.54124 5.23876 6.20124 5.28917 6.99416 4.98209C7.88332 4.63834 8.57999 3.68042 8.37374 2.87834V2.87834Z" fill="#FF00E5"/>
</svg>
