<svg width="9" height="9" viewBox="0 0 9 9" fill="none" xmlns="http://www.w3.org/2000/svg">
<path d="M0.375 0.375H8.625V8.625H0.375V0.375ZM2.54292 7.26833C2.72625 7.65792 3.08833 7.97875 3.70708 7.97875C4.39458 7.97875 4.86667 7.61208 4.86667 6.81V4.16083H4.0875V6.79167C4.0875 7.18583 3.92708 7.28667 3.675 7.28667C3.40917 7.28667 3.29917 7.10333 3.17542 6.88792L2.54292 7.26833V7.26833ZM5.28375 7.18583C5.51292 7.635 5.97583 7.97875 6.7 7.97875C7.43333 7.97875 7.98333 7.59833 7.98333 6.89708C7.98333 6.25083 7.61208 5.96208 6.95208 5.67792L6.75958 5.59542C6.425 5.45333 6.28292 5.35708 6.28292 5.12792C6.28292 4.94 6.425 4.79333 6.65417 4.79333C6.87417 4.79333 7.02083 4.88958 7.15375 5.12792L7.75417 4.72917C7.50208 4.28917 7.14458 4.11958 6.65417 4.11958C5.96208 4.11958 5.5175 4.55958 5.5175 5.14167C5.5175 5.77417 5.88875 6.07208 6.44792 6.31042L6.64042 6.39292C6.99792 6.54875 7.20875 6.645 7.20875 6.91083C7.20875 7.13083 7.0025 7.29125 6.68167 7.29125C6.30125 7.29125 6.08125 7.09417 5.91625 6.81917L5.28375 7.18583Z" fill="#FFC700"/>
</svg>
